<svg width="24" height="24" viewBox="0 0 24 24" fill="none" xmlns="http://www.w3.org/2000/svg">
<path d="M5.68877 10.1843C5.80819 10.0661 5.96949 9.99983 6.13754 10H17.8625C18.0306 9.99983 18.1919 10.0661 18.3113 10.1843C18.4307 10.3026 18.4986 10.4632 18.5 10.6313L18.4813 10.8031L16.8657 16.5C16.7886 16.766 16.6271 16.9998 16.4056 17.1661C16.1841 17.3323 15.9145 17.4221 15.6375 17.4219H8.36254C8.0861 17.4229 7.81693 17.3333 7.59625 17.1668C7.37558 17.0003 7.21555 16.7661 7.14066 16.5L5.52504 10.8031C5.50779 10.7475 5.49936 10.6895 5.50004 10.6313C5.50152 10.4632 5.56936 10.3026 5.68877 10.1843Z" stroke="#461510" stroke-linejoin="round"/>
<path d="M9 10L12 6L15 10" stroke="#461510" stroke-linejoin="round"/>
</svg>
