<svg width="165" height="41" viewBox="0 0 165 41" fill="none" xmlns="http://www.w3.org/2000/svg">
<g clip-path="url(#clip0_528_527)">
<path d="M66.5106 19.7937V11.2814H61.2734V32.7062H66.8346V22.9407C66.8346 17.9162 70.7747 16.4467 75.2241 17.5372V10.6699C70.3836 10.6699 67.6303 13.9728 66.5106 19.7937Z" fill="#461510" fill-opacity="0.6"/>
<path d="M44.2951 22.3257H57.3761C57.7173 21.3197 57.8895 20.2619 57.8854 19.1972C57.8854 14.504 55.1571 10.9023 49.2651 10.9023C42.8229 10.9023 38.7441 16.0176 38.7441 22.5152C38.7441 28.8662 43.1935 33.4165 49.4038 33.4165C53.6213 33.4165 56.727 31.4738 57.9297 27.6339C56.0756 28.8186 53.7588 29.2929 51.6262 29.2929C47.3348 29.2929 44.7668 26.6818 44.2951 22.3257ZM49.8653 12.7985C51.9968 12.7985 53.2018 14.0308 53.2018 15.9734C53.2018 18.9124 51.0237 20.3342 45.699 20.3342H44.2212C44.369 15.1224 46.9449 12.7985 49.8733 12.7985H49.8653Z" fill="#461510" fill-opacity="0.6"/>
<path d="M83.9373 0.474609H78.375V32.7066H83.9373V0.474609Z" fill="#461510" fill-opacity="0.6"/>
<path d="M5.79306 31.0414V17.6906C9.17387 17.901 12.4558 18.9868 14.9703 20.9457V12.4137C12.4558 14.3784 9.17273 15.4177 5.79306 15.9467V3.13298C12.0693 3.65846 15.998 5.22559 19.281 8.24824V1.42285H0V32.7062H19.8835V24.695C16.6005 28.1466 12.2102 30.4194 5.79306 31.0414Z" fill="#461510" fill-opacity="0.6"/>
<path d="M30.1734 25.2175V13.3676H36.7554V11.2819H30.1734V3.12891C28.4125 7.53733 25.0749 11.0924 20.9961 12.1353V13.3676H24.6122V26.2127C24.6122 30.9525 27.4394 33.4206 30.8225 33.4206C34.0669 33.4206 36.4302 31.7139 37.6352 28.1123C36.5235 28.918 35.3185 29.3446 33.7884 29.3446C31.6569 29.3411 30.1734 28.1565 30.1734 25.2175Z" fill="#461510" fill-opacity="0.6"/>
<path d="M158.697 29.1544C154.401 29.1544 151.833 26.5433 151.361 22.186H164.444C164.786 21.1801 164.958 20.1223 164.954 19.0576C164.954 14.3655 162.225 10.7627 156.333 10.7627C149.891 10.7627 145.812 15.878 145.812 22.3755C145.812 28.7277 150.262 33.278 156.472 33.278C160.69 33.278 163.795 31.3342 164.998 27.4954C163.146 28.6766 160.825 29.1544 158.697 29.1544ZM156.936 12.6588C159.067 12.6588 160.272 13.8911 160.272 15.8349C160.272 18.7739 158.094 20.1957 152.764 20.1957H151.286C151.435 14.9805 154.011 12.6553 156.936 12.6553V12.6588Z" fill="#461510" fill-opacity="0.6"/>
<path d="M136.45 26.248C134.734 28.2186 133.656 28.8708 132.325 28.8708C130.332 28.8708 129.174 27.6861 129.174 25.3157V11.2812H123.611V26.212C123.611 30.8099 126.068 33.4199 129.636 33.4199C133.047 33.4199 135.151 31.626 136.684 28.4395V32.7096H142.014V11.2812H136.452L136.45 26.248Z" fill="#461510" fill-opacity="0.6"/>
<path d="M92.3259 0C90.2865 0 88.9883 1.27881 88.9883 3.41327C88.9883 5.49891 90.2865 6.73122 92.3259 6.73122C94.3187 6.73122 95.6157 5.49891 95.6157 3.41327C95.6157 1.27998 94.3221 0 92.3259 0Z" fill="#461510" fill-opacity="0.6"/>
<path d="M108.687 10.7598C103.588 10.7598 99.2773 15.1682 99.2773 22.1366C99.2773 29.105 102.939 33.4134 108.037 33.4134C110.311 33.4134 111.903 33.0065 113.183 32.0102V41.0014H118.744V10.7598L114.223 13.0721C112.947 11.4968 111.217 10.7598 108.687 10.7598ZM110.633 30.6663C107.667 30.6663 105.072 27.775 105.072 22.1354C105.072 16.3993 107.62 13.5081 110.447 13.5081C111.717 13.5081 112.607 13.9533 113.183 14.5241V30.1024C112.533 30.5256 111.601 30.6663 110.633 30.6663Z" fill="#461510" fill-opacity="0.6"/>
<path d="M95.1072 11.2812H89.5449V32.7061H95.1072V11.2812Z" fill="#461510" fill-opacity="0.6"/>
</g>
<defs>
<clipPath id="clip0_528_527">
<rect width="165" height="41" fill="white"/>
</clipPath>
</defs>
</svg>
